<?xml version="1.0" encoding="iso-8859-1"?>
<!-- Generator: Adobe Illustrator 19.0.0, SVG Export Plug-In . SVG Version: 6.00 Build 0)  -->
<svg version="1.1" id="Layer_1" xmlns="http://www.w3.org/2000/svg" xmlns:xlink="http://www.w3.org/1999/xlink" x="0px" y="0px"
	 viewBox="0 0 512 512" style="enable-background:new 0 0 512 512;" xml:space="preserve">
<rect y="327.917" style="fill:#CA9E67;" width="511.996" height="183.998"/>
<g>
	<polygon style="fill:#F9B233;" points="376,359.922 136,359.922 160,327.921 352,327.921 	"/>
	<polygon style="fill:#F9B233;" points="432,431.921 80,431.921 104,399.922 408,399.922 	"/>
	<polygon style="fill:#F9B233;" points="487.999,503.921 24,503.921 48,471.921 464,471.921 	"/>
</g>
<rect x="136.006" y="31.922" style="fill:#86CBED;" width="239.995" height="183.998"/>
<g>
	<polygon style="fill:#E94E1B;" points="376,31.922 136,31.922 152,7.921 360,7.921 	"/>
	<rect x="136.006" y="215.923" style="fill:#E94E1B;" width="239.995" height="88.002"/>
</g>
<g>
	<rect x="208" y="248.086" style="fill:#FFFFFF;" width="16.001" height="15.674"/>
	<rect x="287.998" y="248.086" style="fill:#FFFFFF;" width="16.001" height="15.674"/>
	<rect x="247.999" y="248.086" style="fill:#FFFFFF;" width="16.001" height="15.674"/>
	
		<rect x="216.163" y="92.596" transform="matrix(-0.7071 -0.7071 0.7071 -0.7071 308.9156 335.7759)" style="fill:#FFFFFF;" width="15.674" height="22.627"/>
	
		<rect x="246.161" y="48.867" transform="matrix(-0.7071 -0.7071 0.7071 -0.7071 353.0465 374.081)" style="fill:#FFFFFF;" width="15.674" height="130.111"/>
	
		<rect x="292.164" y="98.95" transform="matrix(-0.7071 -0.7071 0.7071 -0.7071 430.1647 410.0202)" style="fill:#FFFFFF;" width="15.674" height="33.94"/>
</g>
<path style="fill:#1D1D1B;" d="M511.999,320.084H359.837v-8.471c13.466-1.399,24-12.813,24-26.642V26.872
	c0-14.771-12.016-26.787-26.787-26.787H154.95c-14.771,0-26.787,12.016-26.787,26.787v258.099c0,13.829,10.535,25.243,24,26.642
	v8.471H0v15.674h144.04L8.041,511.759h495.919L367.96,335.758H512v-15.674H511.999z M368.163,39.759v168.326H143.837V39.759H368.163
	z M154.95,15.758h202.099c5.164,0,9.505,3.545,10.746,8.327h-223.59C145.446,19.304,149.786,15.758,154.95,15.758z M143.837,284.971
	v-21.213H192v-15.674h-48.163v-24.327h224.327v24.327h-48.163v15.674h48.163v21.213c0,6.128-4.985,11.114-11.114,11.114h-202.1
	C148.822,296.085,143.837,291.1,143.837,284.971z M167.837,311.759h176.327v8.326H167.837V311.759z M391.676,392.084H120.324
	l18.798-24.327H372.88L391.676,392.084z M447.313,464.085H64.686l18.798-24.327h345.032L447.313,464.085z M95.596,424.084
	l12.616-16.327h295.576l12.616,16.327H95.596z M39.959,496.085l12.615-16.327h406.85l12.615,16.327H39.959z M360.768,352.085
	H151.232l12.615-16.327h184.303L360.768,352.085z"/>
<g>
</g>
<g>
</g>
<g>
</g>
<g>
</g>
<g>
</g>
<g>
</g>
<g>
</g>
<g>
</g>
<g>
</g>
<g>
</g>
<g>
</g>
<g>
</g>
<g>
</g>
<g>
</g>
<g>
</g>
</svg>
